<?xml version="1.0" standalone="no"?>
<!DOCTYPE svg PUBLIC "-//W3C//DTD SVG 20010904//EN"
 "http://www.w3.org/TR/2001/REC-SVG-20010904/DTD/svg10.dtd">
<svg version="1.0" xmlns="http://www.w3.org/2000/svg"
 width="3511.000000pt" height="3511.000000pt" viewBox="0 0 3511.000000 3511.000000"
 preserveAspectRatio="xMidYMid meet">
<metadata>
Created by potrace 1.14, written by Peter Selinger 2001-2017
</metadata>
<g transform="translate(0.000000,3511.000000) scale(0.100000,-0.100000)"
fill="#000000" stroke="none">
<path d="M17468 35105 c-2 -1 -56 -6 -121 -9 -65 -4 -126 -9 -136 -11 -10 -2
-54 -6 -97 -10 -43 -4 -81 -9 -84 -10 -3 -2 -33 -6 -67 -10 -34 -3 -72 -8 -85
-11 -13 -2 -38 -7 -57 -10 -45 -8 -131 -24 -246 -48 -763 -159 -1564 -535
-2258 -1060 -88 -67 -169 -128 -181 -136 -12 -8 -34 -27 -51 -41 -16 -14 -83
-72 -148 -127 -304 -260 -657 -614 -922 -926 -27 -32 -57 -66 -65 -75 -8 -9
-51 -61 -95 -116 -44 -55 -82 -102 -85 -105 -3 -3 -21 -25 -40 -50 -19 -25
-37 -47 -40 -50 -9 -9 -183 -240 -262 -350 -139 -194 -165 -231 -426 -630 -20
-30 -42 -64 -48 -75 -6 -11 -54 -90 -106 -175 -124 -202 -267 -452 -390 -680
-19 -36 -52 -96 -73 -134 -45 -85 -334 -661 -365 -731 -13 -27 -43 -93 -67
-145 -53 -112 -253 -560 -253 -566 0 -2 -9 -23 -19 -47 -42 -93 -153 -361
-216 -522 -26 -66 -53 -133 -60 -150 -7 -16 -36 -93 -65 -170 -29 -77 -67
-178 -85 -225 -18 -47 -54 -146 -80 -220 -26 -74 -57 -162 -70 -195 -29 -75
-216 -639 -279 -840 -94 -299 -129 -411 -147 -475 -7 -25 -14 -49 -15 -55 -31
-102 -154 -534 -181 -635 -20 -74 -51 -191 -69 -260 -57 -211 -183 -723 -229
-930 -15 -63 -28 -122 -30 -130 -20 -85 -35 -150 -39 -175 -9 -46 -14 -70 -42
-198 -14 -65 -28 -131 -30 -145 -3 -14 -12 -58 -20 -97 -9 -38 -18 -81 -20
-95 -2 -14 -9 -48 -15 -76 -5 -28 -12 -64 -14 -80 -3 -16 -10 -49 -15 -74 -13
-64 -39 -211 -46 -262 -3 -24 -9 -46 -12 -50 -4 -3 -59 -36 -122 -72 -63 -36
-122 -70 -130 -75 -8 -6 -37 -22 -65 -37 -27 -14 -57 -32 -65 -39 -8 -6 -28
-19 -45 -27 -23 -11 -506 -288 -995 -571 -19 -11 -59 -34 -88 -51 -30 -17 -61
-35 -70 -41 -17 -10 -364 -210 -399 -230 -10 -5 -70 -40 -134 -77 -63 -36
-130 -75 -149 -86 -19 -11 -75 -43 -125 -72 -49 -29 -108 -62 -130 -75 -22
-12 -96 -55 -165 -95 -69 -40 -141 -81 -160 -92 -85 -49 -648 -373 -675 -389
-16 -10 -41 -24 -55 -32 -35 -19 -418 -240 -518 -298 -45 -27 -85 -49 -89 -49
-4 0 -14 -6 -22 -14 -9 -8 -40 -27 -69 -42 -29 -16 -61 -34 -70 -39 -9 -6 -57
-33 -107 -61 -49 -29 -144 -83 -210 -121 -164 -96 -337 -196 -615 -355 -316
-182 -304 -174 -286 -181 14 -6 16 -536 16 -5454 l0 -5448 333 -200 c182 -110
334 -202 337 -205 6 -6 41 -28 58 -36 25 -12 837 -503 849 -514 7 -5 14 -10
16 -10 4 0 110 -63 597 -358 168 -101 316 -192 330 -202 14 -9 30 -19 35 -21
6 -2 163 -96 348 -209 186 -113 357 -216 381 -230 49 -28 126 -75 596 -360
184 -111 351 -212 370 -223 19 -10 58 -34 85 -51 28 -17 59 -37 70 -43 11 -7
51 -31 90 -55 38 -24 74 -45 80 -47 5 -2 21 -12 35 -21 14 -10 41 -27 60 -38
19 -11 67 -39 105 -62 67 -41 643 -390 995 -602 91 -55 239 -145 330 -200 91
-55 179 -108 195 -118 17 -9 116 -69 220 -133 158 -96 258 -157 483 -292 9 -6
55 -33 102 -61 87 -52 331 -200 750 -454 129 -78 249 -150 265 -160 17 -10
158 -95 315 -190 157 -95 328 -198 380 -230 237 -143 911 -550 960 -581 30
-19 67 -41 82 -49 14 -8 171 -103 347 -210 177 -107 329 -200 339 -205 40 -23
157 -94 497 -300 198 -120 376 -227 395 -238 19 -10 54 -32 77 -48 23 -16 44
-29 48 -29 3 0 24 -12 48 -27 23 -15 177 -108 342 -208 165 -100 334 -202 375
-227 41 -25 91 -55 110 -66 19 -11 134 -80 255 -154 121 -73 245 -148 275
-166 30 -18 78 -47 105 -64 28 -17 59 -36 70 -42 16 -9 79 -47 175 -106 75
-46 240 -146 264 -160 17 -10 163 -97 324 -195 l293 -177 40 26 c22 15 54 35
72 45 18 10 120 71 227 136 107 65 206 124 220 132 14 8 44 26 68 41 23 15
106 66 185 113 138 83 652 395 947 574 80 48 262 158 405 245 143 86 279 169
303 184 24 15 58 35 75 45 18 10 149 89 292 176 143 87 276 167 296 179 20 12
95 57 168 101 72 44 144 87 159 96 15 9 99 60 187 114 88 54 174 106 192 116
17 10 50 30 73 44 23 14 56 34 73 44 18 10 91 54 162 98 72 43 245 149 385
233 140 85 350 212 465 282 116 70 239 145 273 165 35 21 75 45 88 53 45 28
635 385 662 401 15 9 115 69 222 134 107 65 207 125 222 134 23 14 84 50 274
166 18 11 127 76 241 145 114 69 210 128 211 132 2 5 7 8 12 8 4 0 39 19 76
42 38 23 218 131 399 241 182 110 341 207 355 217 14 9 30 19 35 21 13 5 81
46 310 186 105 63 204 123 220 133 17 9 181 109 365 220 184 112 517 313 740
448 223 135 464 281 535 324 156 95 158 96 210 127 22 14 166 101 320 194 154
93 294 178 310 187 17 10 82 49 145 88 63 38 189 114 278 169 90 54 178 107
196 118 18 11 125 75 237 143 203 123 389 235 779 471 113 68 313 189 445 269
132 79 251 152 265 162 14 9 45 28 70 42 25 14 137 82 250 150 113 69 261 159
330 201 l125 75 3 5441 c2 4900 4 5442 17 5448 12 4 8 11 -19 29 -19 13 -37
24 -40 24 -3 0 -101 55 -218 123 -311 181 -1006 580 -1058 609 -25 14 -130 75
-235 135 -218 127 -902 521 -956 551 -20 11 -67 39 -104 61 -37 23 -69 41 -71
41 -2 0 -38 21 -81 46 -43 25 -107 62 -143 82 -36 19 -72 40 -80 47 -8 7 -22
15 -30 18 -8 4 -42 22 -75 42 -33 19 -80 46 -105 60 -25 14 -61 35 -80 46 -19
12 -96 56 -170 99 -74 42 -193 111 -265 152 -71 41 -254 146 -405 233 -151 87
-386 222 -521 301 -136 78 -266 153 -290 167 -24 13 -84 47 -133 76 -49 28
-93 51 -97 51 -5 0 -9 5 -9 10 0 6 -4 10 -9 10 -9 0 -338 186 -354 200 -10 9
-16 39 -37 200 -6 47 -13 96 -15 110 -2 14 -12 72 -20 130 -34 222 -54 341
-60 370 -6 29 -6 31 -39 220 -22 129 -35 196 -51 280 -3 14 -10 51 -15 82 -12
63 -17 90 -25 128 -3 14 -12 59 -20 100 -32 160 -65 319 -85 410 -12 52 -23
104 -25 115 -3 11 -7 32 -11 47 -3 15 -5 30 -5 33 0 2 -5 19 -10 37 -5 18 -12
47 -15 63 -3 17 -14 67 -24 113 -11 45 -29 121 -41 170 -11 48 -34 143 -51
212 -16 69 -31 132 -33 140 -6 32 -109 423 -152 580 -25 91 -47 174 -50 185
-3 11 -17 58 -30 105 -14 47 -27 94 -30 105 -3 11 -37 126 -75 255 -328 1108
-725 2160 -1176 3114 -78 166 -281 567 -355 701 -33 61 -76 139 -95 175 -78
144 -298 515 -400 675 -512 798 -1031 1433 -1597 1950 -95 87 -150 135 -291
255 -16 13 -72 57 -124 98 -52 40 -106 82 -120 93 -166 129 -510 353 -725 471
-271 149 -588 290 -870 388 -117 40 -410 128 -450 135 -11 2 -29 6 -40 9 -52
13 -245 55 -285 61 -25 4 -54 9 -65 11 -36 7 -69 13 -115 19 -25 3 -52 8 -60
10 -8 2 -44 7 -80 10 -36 3 -72 8 -80 10 -8 2 -53 7 -100 11 -47 3 -103 8
-125 11 -47 4 -672 13 -677 8z m617 -1679 c171 -14 339 -37 460 -63 39 -8 81
-17 95 -19 14 -3 61 -14 105 -25 44 -12 87 -22 95 -24 8 -2 74 -22 145 -45
175 -57 349 -127 532 -216 131 -64 197 -99 358 -194 95 -55 343 -220 369 -245
6 -6 23 -18 37 -27 25 -16 289 -225 299 -237 3 -3 39 -35 80 -71 115 -101 290
-269 430 -416 303 -318 616 -707 886 -1104 54 -80 102 -146 106 -148 4 -2 8
-8 8 -13 0 -5 29 -53 64 -107 98 -150 206 -321 206 -326 0 -2 29 -52 65 -111
36 -59 65 -109 65 -111 0 -2 11 -21 23 -42 13 -20 39 -64 57 -97 18 -33 54
-98 81 -145 87 -155 188 -352 323 -625 167 -339 168 -341 351 -750 27 -61 53
-122 80 -185 15 -36 36 -85 47 -110 11 -25 31 -73 44 -107 13 -35 28 -71 34
-80 25 -46 347 -889 390 -1023 4 -14 25 -70 45 -125 20 -55 38 -107 40 -115 6
-23 106 -322 116 -345 4 -11 37 -112 73 -225 107 -340 126 -401 220 -730 31
-107 65 -224 75 -260 47 -161 86 -308 165 -620 47 -184 87 -346 90 -360 3 -14
28 -124 55 -245 28 -121 51 -230 51 -242 0 -20 -81 -126 -189 -248 -20 -23
-58 -67 -85 -98 -27 -32 -67 -78 -90 -102 -22 -24 -75 -81 -116 -127 -98 -109
-537 -547 -670 -670 -144 -132 -149 -136 -216 -195 -32 -28 -71 -62 -85 -75
-121 -109 -433 -364 -609 -498 -47 -36 -87 -67 -90 -70 -3 -3 -34 -27 -70 -52
-36 -26 -69 -51 -75 -55 -5 -5 -84 -60 -175 -124 -142 -99 -247 -169 -410
-275 -51 -33 -249 -154 -284 -174 -17 -9 -80 -46 -141 -80 -232 -134 -639
-339 -850 -427 -33 -14 -82 -35 -110 -48 -169 -76 -617 -235 -860 -304 -124
-35 -388 -102 -455 -115 -14 -3 -36 -8 -50 -11 -14 -3 -38 -7 -55 -10 -16 -3
-41 -8 -55 -10 -68 -14 -167 -32 -215 -39 -55 -8 -120 -18 -145 -21 -14 -2
-43 -6 -65 -9 -22 -3 -67 -8 -100 -11 -33 -3 -80 -8 -105 -10 -53 -5 -181 -15
-265 -20 -81 -5 -524 -5 -605 0 -156 9 -246 16 -274 20 -17 2 -58 7 -91 10
-211 20 -445 59 -710 117 -99 21 -189 41 -200 43 -55 12 -393 107 -495 140
-611 197 -1177 451 -1840 826 -14 8 -27 16 -30 19 -3 3 -21 14 -40 24 -146 80
-565 351 -819 529 -253 177 -865 651 -901 696 -3 4 -18 17 -35 30 -33 25 -95
79 -249 215 -429 378 -835 783 -1209 1203 -124 140 -119 116 -71 307 9 34 19
77 24 96 56 241 239 900 345 1245 25 83 48 157 50 165 13 52 178 557 261 800
144 422 460 1257 554 1465 10 22 56 128 101 235 45 107 98 229 117 270 18 41
43 95 54 120 11 25 32 70 45 100 14 30 38 82 53 115 35 77 177 372 194 405 8
14 59 114 115 224 88 172 234 444 298 556 188 329 348 591 517 845 134 202
324 473 394 560 4 6 21 28 37 50 17 22 35 46 42 55 7 8 35 44 63 80 29 36 66
83 83 105 49 61 212 252 286 335 93 105 481 493 570 571 41 35 84 73 97 84 12
11 39 34 60 52 22 17 66 53 99 80 384 315 890 613 1300 764 44 16 89 34 100
39 19 8 146 48 265 83 142 42 435 101 560 113 30 3 66 7 80 9 14 3 75 8 135
11 61 3 111 7 112 8 5 5 355 -2 428 -8z m405 -21090 c0 -2 -7 -7 -16 -10 -8
-3 -12 -2 -9 4 6 10 25 14 25 6z"/>
</g>
</svg>
